<?xml version="1.0" encoding="UTF-8" standalone="no"?>
<!DOCTYPE svg PUBLIC "-//W3C//DTD SVG 1.1//EN" "http://www.w3.org/Graphics/SVG/1.1/DTD/svg11.dtd">
<svg width="100%" height="100%" viewBox="0 0 244 280" version="1.1" xmlns="http://www.w3.org/2000/svg" xmlns:xlink="http://www.w3.org/1999/xlink" xml:space="preserve" xmlns:serif="http://www.serif.com/" style="fill-rule:evenodd;clip-rule:evenodd;stroke-miterlimit:1.5;">
    <rect id="rooted" x="0" y="0" width="244" height="280" style="fill:none;"/>
    <path d="M122,1.436l-120,69.282l-0,138.564l120,69.282l120,-69.282l0,-138.564l-120,-69.282Z" style="fill:none;stroke:#adfd2d;stroke-width:1px;"/>
    <g>
        <clipPath id="_clip1">
            <path d="M122,7.209l-115,66.396l-0,132.79l115,66.396l115,-66.396l0,-132.79l-115,-66.396Z"/>
        </clipPath>
        <g clip-path="url(#_clip1)">
            <rect x="-0" y="7.209" width="244" height="265.581" style="fill:#ebebd0;"/>
        </g>
        <g id="_800" serif:id="800">
            <g>
                <path d="M123.725,63.246c0.042,1.791 -0.682,3.257 -1.616,3.272c-0.934,0.015 -1.726,-1.428 -1.768,-3.219c-0.042,-1.791 0.682,-3.257 1.616,-3.272c0.933,-0.014 1.726,1.428 1.768,3.219Z" style="fill:#344234;"/>
                <path d="M102.922,93.776c-1.216,-2.407 -2.833,-4.701 -4.852,-6.881c-0.794,-0.86 -1.884,-2.233 -1.01,-3.29c0.559,-0.676 1.676,-0.549 2.228,0.038c1.263,1.339 2.493,2.659 3.691,3.963c0.451,0.491 0.839,1.024 1.164,1.601c0.83,1.474 1.639,2.833 2.426,4.078c0.851,1.34 2.443,2.186 4.031,2.93c3.172,1.488 6.012,3.272 8.523,5.352c0.006,0.006 0.014,0.01 0.023,0.013c0.037,0.013 0.082,-0.003 0.098,-0.035c0.004,-0.007 0.006,-0.014 0.006,-0.022c0.021,-0.932 0.022,-1.905 0.004,-2.919c-0.081,-5.091 -2.843,-9.43 -6.793,-13.242c-0.952,-0.917 -2.242,-1.672 -3.873,-2.265c-3.91,-1.415 -7.258,-2.949 -10.044,-4.6c-2.577,-1.527 -5.847,-4.237 -5.898,-7.005c-0.025,-1.503 -0.059,-2.918 -0.104,-4.243c-0.027,-0.846 0.925,-1.785 2.039,-1.288c0.673,0.299 1.032,0.781 1.076,1.447c0.095,1.423 -0.107,3.241 0.505,4.463c0.424,0.847 0.995,1.624 1.713,2.331c0.003,0.003 0.006,0.006 0.009,0.008c0.037,0.027 0.094,0.026 0.126,-0.003c0.004,-0.003 0.007,-0.007 0.009,-0.01c1.324,-1.683 2.583,-3.374 3.779,-5.075c0.39,-0.56 0.545,-1.175 0.545,-1.821c-0,-1.067 0.003,-2.075 0.01,-3.023c0.017,-1.947 3.092,-2.194 3.099,0.013c0.007,1.478 -0.028,2.911 -0.104,4.301c-0.021,0.386 -0.102,0.76 -0.246,1.12c-0.834,2.085 -2.466,4.067 -3.836,6.001c-0.125,0.176 -0.077,0.403 0.115,0.535c2.678,1.829 6.12,3.251 9.242,4.342c0.166,0.058 0.219,0.018 0.159,-0.121c-0.938,-2.106 -1.567,-4.188 -1.888,-6.248c-0.246,-1.581 2.056,-2.218 2.9,-0.675c0.586,1.074 0.892,2.32 1.272,3.482c0.653,1.997 1.299,3.673 1.938,5.028c1.094,2.315 3.213,4.443 5.172,6.503c0.119,0.126 0.169,0.11 0.151,-0.05c-0.258,-2.455 -0.373,-4.886 -0.347,-7.293c0.009,-0.874 -0.231,-2.309 -0.72,-4.306c-0.595,-2.422 -1.608,-4.29 -3.583,-6c-1.716,-1.489 -2.994,-3.038 -3.048,-5.177c-0.029,-1.168 -0.043,-2.411 -0.041,-3.729c0.007,-1.818 3.23,-1.843 3.153,0.335c-0.034,0.93 -0.028,1.842 0.017,2.735c0.124,2.485 2.752,3.496 4.172,5.404c0.882,1.183 1.483,2.401 1.803,3.656c0.108,0.415 0.254,0.424 0.438,0.027c0.791,-1.694 1.645,-3.499 2.974,-4.69c0.7,-0.626 1.435,-1.267 2.204,-1.923c0.736,-0.628 1.114,-1.383 1.134,-2.265c0.022,-1.08 0.028,-2.147 0.017,-3.199c-0.017,-1.906 3.078,-1.967 3.052,-0.245c-0.023,1.342 -0.024,2.725 -0.004,4.15c0.017,1.23 -0.521,2.499 -1.507,3.375c-1.444,1.287 -2.806,2.38 -3.735,4.042c-1.447,2.59 -2.171,5.309 -2.174,8.156l0,5.36c0,0.401 0.14,0.435 0.418,0.102c1.296,-1.562 2.608,-3.111 3.936,-4.647c0.525,-0.609 0.992,-1.357 1.4,-2.243c0.998,-2.177 1.757,-4.279 2.278,-6.305c0.213,-0.822 0.795,-1.232 1.746,-1.231c0.023,0 0.045,0.001 0.067,0.003c0.976,0.044 1.397,0.501 1.262,1.37c-0.323,2.096 -0.787,4.482 -1.961,6.402c-0.068,0.109 -0.031,0.142 0.111,0.099c2.817,-0.907 5.34,-1.944 7.57,-3.112c0.803,-0.419 1.532,-0.891 2.187,-1.417c0.061,-0.049 0.072,-0.127 0.027,-0.187c-0.956,-1.27 -1.902,-2.522 -2.84,-3.756c-0.992,-1.31 -1.49,-2.702 -1.524,-4.262c-0.022,-1.104 -0.034,-2.226 -0.034,-3.367c0,-2.114 3.173,-2.073 3.167,-0.069c-0.003,0.859 0.011,1.698 0.04,2.516c0.054,1.475 0.695,2.927 1.925,4.355c0.854,0.992 1.626,2.013 2.314,3.062c0.004,0.005 0.008,0.01 0.012,0.014c0.044,0.046 0.126,0.055 0.181,0.02c0.006,-0.004 0.011,-0.008 0.016,-0.012c1.413,-1.238 2.194,-2.655 2.143,-4.421c-0.029,-0.965 -0.013,-1.89 0.047,-2.776c0.128,-1.843 3.018,-1.497 3.025,0.096c0.009,1.556 0,3.011 -0.027,4.366c-0.047,2.29 -2.355,4.531 -4.387,5.879c-3.006,1.99 -5.812,3.466 -8.419,4.427c-1.07,0.396 -2.39,0.796 -3.96,1.203c-1.841,0.48 -3.389,1.355 -4.643,2.625c-2.705,2.741 -4.453,5.774 -5.242,9.101c-0.355,1.488 -0.54,3.245 -0.555,5.269c-0.02,2.245 -0.029,4.51 -0.027,6.794c-0,0.475 0.164,0.517 0.491,0.127c1.423,-1.697 2.742,-3.46 4.32,-5.042c1.907,-1.911 4.041,-3.877 6.403,-5.896c0.7,-0.596 1.346,-1.412 1.783,-2.169c1.212,-2.096 2.302,-4.743 4.193,-6.531c1.33,-1.257 2.373,-2.457 3.129,-3.597c0.394,-0.599 1.322,-0.785 1.948,-0.321c1.888,1.403 -0.111,3.311 -1.376,4.52c-1.747,1.671 -3.078,3.699 -3.991,6.082c-0.04,0.108 0.004,0.14 0.132,0.096c1.904,-0.678 3.98,-1.197 5.423,-2.507c1.518,-1.378 3.16,-2.968 4.004,-4.734c1.891,-3.953 3.782,-7.885 5.673,-11.797c0.491,-1.016 1.084,-2.154 1.777,-3.414c0.932,-1.7 3.556,-0.887 2.853,0.832c-1.151,2.822 -2.403,5.509 -3.758,8.063c-0.068,0.126 -0.022,0.167 0.138,0.121c2.996,-0.846 5.919,-2.23 8.768,-4.152c1.753,-1.187 3.863,0.596 2.254,1.914c-1.996,1.638 -4.142,2.898 -6.436,3.778c-1.375,0.529 -2.963,1.091 -4.765,1.684c-1.137,0.373 -1.895,1.015 -2.274,1.925c-0.832,1.997 -1.932,3.754 -3.298,5.269c-0.007,0.008 -0.011,0.018 -0.011,0.028c0,0.026 0.026,0.047 0.058,0.047c0.001,-0 0.002,-0 0.004,-0c2.521,-0.141 4.995,-0.191 7.422,-0.149c0.947,0.017 1.359,0.405 1.235,1.165c-0.128,0.793 -0.545,1.197 -1.534,1.282c-5.996,0.519 -12.284,1.873 -17.813,4.095c-3.084,1.241 -5.861,3.117 -8.33,5.629c-3.951,4.023 -7.218,8.395 -7.921,13.486c-0.195,1.406 -0.06,2.801 -0.138,4.196c-0.009,0.158 0.048,0.177 0.172,0.058c1.897,-1.825 4.06,-3.593 6.487,-5.303c1.328,-0.935 2.466,-1.964 3.415,-3.087c0.72,-0.853 1.617,-2.219 2.692,-4.099c0.639,-1.123 1.665,-2.65 3.078,-4.584c0.979,-1.34 3.486,-0.387 2.699,1.077c-1.133,2.105 -2.195,4.02 -3.187,5.745c-0.121,0.212 -0.047,0.281 0.223,0.206c3.086,-0.854 6.107,-2.079 9.064,-3.677c1.672,-0.907 4.509,-1.264 6.605,-1.453c2.772,-0.25 4.993,-1.535 7.028,-3.208c1.64,-1.345 3.253,-2.732 4.839,-4.16c0.168,-0.148 0.518,-0.316 0.76,-0.346c1.938,-0.233 1.962,1.291 1.164,2.202c-1.034,1.179 -2.157,2.239 -3.371,3.18c-0.538,0.416 -0.488,0.471 0.151,0.165c1.479,-0.708 3.136,-1.437 4.973,-2.186c1.185,-0.483 2.598,-0.425 2.985,0.797c0.099,0.315 0.026,0.578 -0.219,0.791c-0.76,0.664 -1.867,1.087 -2.84,1.551c-5.06,2.406 -10.518,3.633 -16.402,4.237c-1.161,0.121 -2.389,0.517 -3.419,0.986c-2.855,1.307 -5.646,2.474 -8.371,3.499c-1.11,0.417 -2.177,0.958 -3.233,1.463c-2.502,1.2 -4.795,2.575 -6.881,4.128c-5.192,3.864 -7.789,8.977 -7.325,14.793c0.105,1.324 0.22,2.561 0.343,3.713c0.036,0.324 0.148,0.342 0.337,0.055c1.864,-2.853 4.054,-5.374 6.571,-7.563c1.655,-1.439 3.875,-3.089 6.658,-4.949c1.39,-0.928 2.79,-1.947 4.028,-3.026c2.846,-2.485 6.151,-4.616 9.892,-5.978c2.291,-0.835 4.946,-0.942 7.379,-1.546c1.267,-0.315 2.623,-0.785 4.068,-1.412c0.81,-0.351 1.894,-0.574 2.574,0.105c0.565,0.563 0.134,1.293 -0.458,1.683c-1.952,1.282 -4.085,2.142 -6.4,2.581c-1.289,0.244 -2.5,0.504 -3.63,0.78c-3.309,0.804 -6.208,2.162 -8.698,4.076c-0.083,0.065 -0.066,0.098 0.051,0.096c3.111,-0.006 6.248,-0.009 9.411,-0.009c1.455,-0.001 2.851,-0.079 4.185,-0.233c5.158,-0.596 9.765,-4.089 11.854,-8.021c1.207,-2.276 2.456,-4.445 3.748,-6.509c1.403,-2.235 3.237,-4.023 5.848,-5.451c1.702,-0.931 3.275,-1.65 4.717,-2.155c1.874,-0.659 2.951,1.447 1.235,2.4c-1.443,0.802 -3.038,1.411 -4.33,2.372c-1.335,0.996 -2.524,2.087 -3.567,3.271c-0.01,0.011 -0.016,0.025 -0.016,0.038c0,0.035 0.035,0.063 0.077,0.064c2.263,0.067 4.41,-0.026 6.44,-0.28c1.595,-0.204 3.031,-0.769 4.451,-1.398c0.542,-0.242 1.228,-0.088 1.659,0.228c1.854,1.345 -0.872,2.551 -2.214,3.001c-3.032,1.016 -5.969,1.285 -9.28,1.582c-0.971,0.088 -1.774,0.279 -2.409,0.574c-1.527,0.711 -2.284,2.422 -2.967,3.715c-1.41,2.667 -3.527,4.792 -6.343,6.434c-0.175,0.101 -0.155,0.154 0.061,0.16c1.931,0.049 3.943,0.285 5.827,-0.052c1.283,-0.229 2.379,-0.536 3.288,-0.92c2.227,-0.948 4.343,-1.917 6.258,-0.764c1.023,0.618 -0.353,1.524 -1.02,1.799c-1.743,0.719 -3.439,1.334 -5.09,1.843c-0.209,0.064 -0.205,0.116 0.013,0.156c2.739,0.522 5.141,0.448 7.207,-0.222c1.059,-0.345 2.219,-0.842 3.479,-1.491c1.588,-0.822 3.289,-0.987 5.101,-0.495c0.121,0.031 0.205,0.095 0.252,0.192c0.263,0.524 0.096,0.942 -0.501,1.255c-1.561,0.821 -3.24,1.614 -5.037,2.381c-4.024,1.719 -7.816,1.983 -12.076,1.134c-4.374,-0.873 -8.657,-1.411 -13.145,-0.826c-1.618,0.21 -3.225,0.387 -4.822,0.53c-0.157,0.014 -0.173,0.06 -0.047,0.137c2.656,1.65 5.593,3.013 8.812,4.089c2.544,0.853 5.156,1.17 7.836,0.95c2.598,-0.214 5.369,-0.292 8.314,-0.233c1.456,0.027 2.725,0.177 3.806,0.45c0.898,0.225 1.605,1 0.747,1.667c-0.489,0.379 -1.207,0.586 -2.154,0.621c-3.539,0.133 -6.713,0.228 -9.522,0.283c-0.079,0.001 -0.144,0.055 -0.144,0.12c0,0.032 0.016,0.063 0.044,0.085c1.87,1.516 3.42,3.112 4.649,4.787c0.552,0.752 -0.168,1.384 -1.117,1.194c-1.776,-0.354 -3.26,-1.452 -4.421,-2.586c-0.982,-0.96 -1.962,-1.926 -2.94,-2.9c-0.216,-0.216 -0.489,-0.351 -0.821,-0.404c-1.878,-0.305 -3.786,-0.618 -5.512,-1.194c-4.953,-1.655 -9.232,-3.819 -12.839,-6.492c-0.616,-0.456 -1.181,-0.379 -2.107,-0.357c-4.611,0.106 -8.699,1.216 -12.264,3.331c-0.107,0.064 -0.096,0.108 0.034,0.132c3.617,0.639 6.682,2.35 9.64,4.207c0.796,0.499 1.7,0.759 2.712,0.78c1.996,0.036 3.953,-0.013 5.871,-0.149c1.023,-0.074 2.557,-0.11 3.351,0.525c0.142,0.114 0.222,0.27 0.222,0.432c0,0.164 -0.081,0.321 -0.225,0.436c-1.039,0.829 -2.304,1.296 -3.796,1.4c-1.776,0.125 -3.507,0.167 -5.191,0.126c-0.48,-0.012 -0.533,0.103 -0.158,0.346c1.608,1.049 4.242,3.436 3.987,5.177c-0.001,0.008 -0.003,0.016 -0.005,0.023c-0.034,0.118 -0.179,0.192 -0.321,0.165c-0.009,-0.002 -0.018,-0.004 -0.028,-0.007c-0.661,-0.19 -1.347,-0.387 -2.055,-0.59c-3.156,-0.907 -3.772,-3.18 -5.609,-5.1c-1.669,-1.743 -3.87,-3.092 -6.602,-4.048c-2.304,-0.804 -4.286,-0.508 -6.204,0.849c-2.028,1.437 -3.656,3.064 -4.886,4.88c-0.955,1.414 -1.685,2.957 -2.318,4.468c-1.034,2.469 -1.553,4.844 -1.558,7.123c-0.009,3.586 -0.029,7.147 -0.06,10.682c-0.018,2.194 0.153,4.002 0.515,5.427c1.112,4.377 3.654,8.114 7.624,11.212c4.667,3.641 9.374,5.366 15.736,5.456c3.349,0.048 6.926,0.056 10.73,0.025c2.394,-0.02 4.805,0.251 7.234,0.813c1.831,0.425 3.936,0.67 6.316,0.736c2.958,0.082 5.812,0.115 8.559,0.099c1.255,-0.006 2.621,0.349 2.443,1.612c-0.128,0.922 -0.982,1.205 -2.032,1.203c-4.805,-0.008 -9.735,-0.034 -14.791,-0.08c-0.177,-0 -0.205,0.052 -0.084,0.156c0.884,0.76 1.761,1.391 2.631,1.893c1.154,0.667 2.591,1.018 3.913,1.499c1.662,0.604 0.915,2.474 -0.885,2.334c-4.162,-0.327 -7.052,-3.065 -9.747,-5.38c-0.942,-0.805 -2.179,-1.249 -3.712,-1.331c-1.247,-0.066 -2.642,-0.091 -4.185,-0.075c-2.494,0.024 -4.855,0.004 -7.083,-0.06c-0.038,-0.002 -0.059,0.012 -0.064,0.041l0,0.003c-0.004,0.04 0.017,0.064 0.064,0.071c2.901,0.478 5.544,1.446 7.931,2.903c1.541,0.941 3.08,1.893 4.616,2.856c2.069,1.299 4.3,2.167 6.807,2.57c1.572,0.255 3.085,0.492 4.539,0.712c0.491,0.073 0.936,0.229 1.335,0.469c0.818,0.492 0.63,1.428 -0.144,1.854c-0.496,0.273 -1.068,0.371 -1.716,0.296c-1.943,-0.219 -3.754,-0.467 -5.434,-0.744c-3.327,-0.547 -6.28,-1.77 -8.859,-3.669c-0.2,-0.148 -0.264,-0.116 -0.192,0.096c0.523,1.525 1.424,2.984 2.705,4.375c0.234,0.254 0.246,0.603 0.03,0.868c-0.646,0.799 -1.796,0.832 -2.668,0.25c-1.871,-1.258 -3.025,-3.51 -3.684,-5.696c-0.538,-1.792 -1.9,-2.933 -4.085,-3.424c-3.206,-0.72 -6.527,-1.088 -9.582,-1.917c-3.722,-1.009 -7.082,-2.72 -10.081,-5.135c-0.159,-0.128 -0.205,-0.106 -0.138,0.066c0.831,2.114 1.424,4.391 2.702,6.354c1.615,2.485 5.145,3.416 8.486,3.738c2.003,0.194 4.049,0.347 6.137,0.458c1.023,0.055 2.513,0.536 2.463,1.557c-0.037,0.747 -0.963,0.904 -1.696,0.909c-1.754,0.011 -3.455,0.009 -5.104,-0.008c-0.186,-0.004 -0.202,0.036 -0.047,0.118c1.891,1.003 3.777,2.3 5.659,3.891c1.335,1.13 3.029,1.71 5.084,1.741c3.163,0.046 6.341,0.064 9.535,0.053c0.629,-0.002 1.172,0.165 1.632,0.502c1.104,0.805 -0.212,2.224 -1.46,2.216c-3.798,-0.024 -7.36,-0.032 -10.686,-0.024c-0,-0 -0.001,-0.001 -0.001,-0.001c-0.057,0 -0.104,0.039 -0.104,0.086c-0,0.021 0.01,0.042 0.028,0.057c0.809,0.731 1.598,1.452 2.365,2.164c1.003,0.934 1.898,1.656 0.616,2.653c-1.054,0.821 -2.228,-0.222 -2.887,-0.827c-2.768,-2.548 -5.479,-4.989 -8.133,-7.323c-1.756,-1.544 -3.725,-2.801 -5.908,-3.774c-1.396,-0.623 -3.075,-1.082 -4.572,-1.664c-3.695,-1.439 -6.218,-3.715 -7.534,-6.802c-0.39,-0.915 -0.833,-1.853 -1.329,-2.812c-0.579,-1.122 -1.468,-2.157 -2.668,-3.106c-0.106,-0.084 -0.154,-0.066 -0.145,0.055c0.157,2.159 0.264,4.314 0.32,6.467c0.134,5.254 3.206,9.205 8.496,12.014c2.176,1.157 4.592,1.958 6.806,2.942c2.138,0.95 3.902,2.273 5.293,3.97c0.971,1.187 1.798,2.305 2.48,3.356c0.19,0.295 0.304,0.613 0.339,0.956c0.078,0.7 -0.757,1.34 -1.581,1.197c-0.554,-0.097 -1.027,-0.389 -1.42,-0.876c-1.867,-2.326 -3.802,-4.602 -6.618,-5.824c-1.862,-0.81 -3.711,-1.636 -5.548,-2.48c-0.117,-0.055 -0.175,-0.028 -0.175,0.082c0.004,3.61 -0.01,7.498 -0.044,11.663c-0.005,0.763 -0.514,1.152 -1.528,1.167c-0.022,0 -0.045,-0.001 -0.067,-0.003c-1.014,-0.108 -1.532,-0.558 -1.554,-1.351c-0.128,-4.635 -0.18,-8.902 -0.155,-12.799c0.002,-0.194 -0.116,-0.365 -0.353,-0.511c-2.304,-1.424 -4.101,-3.18 -5.391,-5.267c-0.17,-0.275 -0.254,-0.258 -0.252,0.049c0.02,6.122 0.017,12.404 -0.01,18.847c-0.007,1.304 -1.279,2.46 -2.85,1.45c-0.361,-0.233 -0.544,-0.529 -0.548,-0.89c-0.025,-2.204 -0.027,-4.417 -0.007,-6.637c-0,-0.141 -0.063,-0.163 -0.189,-0.066c-1.175,0.908 -2.403,1.789 -3.684,2.644c-1.396,0.928 -2.258,2.128 -2.648,3.543c-0.494,1.787 -3.479,1.134 -2.991,-0.753c0.487,-1.871 1.525,-3.398 3.116,-4.58c1.15,-0.857 2.304,-1.718 3.462,-2.584c1.443,-1.082 2.806,-2.54 2.786,-4.218c-0.018,-1.75 -0.009,-3.467 0.027,-5.149c0.004,-0.16 -0.048,-0.173 -0.158,-0.041c-0.857,1.016 -1.729,1.896 -2.615,2.641c-1.823,1.535 -4.401,2.529 -6.241,3.952c-1.678,1.296 -2.73,2.999 -3.156,5.108c-0.173,0.851 -0.656,1.394 -1.45,1.628c-1.548,0.456 -2.093,-1.104 -1.79,-2.046c0.385,-1.202 0.868,-2.448 1.446,-3.737c0.006,-0.011 0.008,-0.023 0.008,-0.035c0,-0.053 -0.053,-0.096 -0.117,-0.096c-0.016,-0 -0.031,0.002 -0.045,0.007c-2.494,0.824 -4.657,1.645 -6.114,3.614c-0.63,0.85 -1.248,1.746 -1.854,2.689c-1.154,1.79 -3.654,0.513 -2.87,-1.096c0.682,-1.404 1.657,-2.858 2.924,-4.361c1.074,-1.274 2.58,-2.222 4.515,-2.845c1.923,-0.617 3.802,-1.159 5.64,-1.626c3.445,-0.876 6.012,-2.213 8.001,-4.783c1.568,-2.029 2.371,-4.203 2.409,-6.522c0.042,-2.745 0.076,-5.6 0.101,-8.565c-0,-0.11 -0.053,-0.131 -0.158,-0.064c-2.961,1.909 -4.613,4.397 -5.135,7.53c-0.296,1.761 -0.087,3.609 -0.791,5.251c-1.043,2.437 -3.093,4.157 -6.15,5.16c-0.568,0.186 -1.222,0.232 -1.962,0.137c-0.881,-0.113 -0.969,-0.881 -0.629,-1.414c0.39,-0.607 1.376,-0.901 2.073,-1.228c1.559,-0.73 2.632,-1.711 3.22,-2.941c0.736,-1.543 0.383,-3.438 0.488,-5.154c0.006,-0.116 -0.036,-0.129 -0.128,-0.041c-2.623,2.451 -5.138,4.702 -7.547,6.752c-0.976,0.831 -2.575,2.112 -4.798,3.842c-3.264,2.537 -6.467,5.194 -9.61,7.969c-0.704,0.621 -1.43,0.665 -2.177,0.132c-0.824,-0.593 -0.848,-1.236 -0.074,-1.917c0.994,-0.877 2.012,-1.808 3.055,-2.795c0.019,-0.018 0.028,-0.04 0.028,-0.063c0,-0.054 -0.053,-0.098 -0.118,-0.099c-3.726,-0 -7.366,0.005 -10.919,0.016c-1.228,0.006 -2.308,-0.909 -1.628,-1.878c0.468,-0.67 1.383,-0.86 2.261,-0.849c3.373,0.046 6.497,0.023 9.37,-0.068c3.294,-0.105 5.539,-1.225 7.917,-2.991c1.42,-1.052 2.825,-2.072 4.213,-3.059c0.153,-0.108 0.13,-0.146 -0.067,-0.115c-1.871,0.293 -3.719,0.331 -5.545,0.115c-0.53,-0.062 -0.791,-0.304 -0.784,-0.725c0.02,-1.263 1.712,-1.571 2.94,-1.661c3.678,-0.264 6.595,-1.247 9.072,-3.614c1.621,-1.554 2.823,-3.224 4.041,-4.984c0.152,-0.224 0.105,-0.257 -0.142,-0.099c-3.472,2.215 -7.284,3.674 -11.436,4.377c-1.873,0.317 -3.893,0.603 -6.06,0.86c-1.087,0.129 -3.284,0.73 -3.395,1.892c-0.269,2.872 -1.036,5.302 -3.671,7.392c-0.851,0.678 -2.284,0.008 -2.516,-0.769c-0.03,-0.097 -0.018,-0.19 0.033,-0.28c0.42,-0.703 0.715,-1.158 0.885,-1.365c0.911,-1.107 1.396,-2.283 1.457,-3.526c0.018,-0.377 -0.135,-0.43 -0.458,-0.159c-2.272,1.906 -5.015,3.183 -8.23,3.831c-1.976,0.399 -4.121,0.745 -6.436,1.038c-0.46,0.058 -0.923,0.028 -1.39,-0.091c-1.083,-0.277 -1.379,-1.205 -0.612,-1.903c0.363,-0.331 0.84,-0.533 1.43,-0.607c3.068,-0.384 6.228,-0.865 8.899,-2.032c1.207,-0.527 2.574,-1.322 4.102,-2.383c2.301,-1.599 4.99,-3.039 8.065,-4.32c0.164,-0.068 0.154,-0.108 -0.03,-0.121c-2.809,-0.187 -5.641,-0.241 -8.496,-0.162c-2.03,0.057 -3.687,0.753 -4.97,2.09c-2.335,2.438 -4.518,4.218 -8.462,4.602c-1.722,0.165 -2.614,-1.603 -0.901,-2.213c0.769,-0.275 1.512,-0.535 2.23,-0.78c1.679,-0.577 2.904,-1.628 3.994,-2.804c0.085,-0.095 0.056,-0.14 -0.087,-0.134c-4.608,0.179 -9.461,0.232 -14.559,0.159c-1.063,-0.016 -2.11,-0.835 -1.726,-1.735c0.333,-0.78 1.191,-1.085 2.156,-1.077c4.038,0.037 7.404,0.013 10.098,-0.071c1.722,-0.053 3.464,-0.31 5.225,-0.769c0.583,-0.152 1.615,-0.342 3.096,-0.569c0.953,-0.146 1.995,-0.22 3.125,-0.222c3.807,-0.006 7.574,-0.005 11.302,0.003c5.491,0.011 10.215,-1.339 14.172,-4.048c6.03,-4.128 10.02,-10.183 10.027,-16.641c0.002,-3.252 0.01,-6.451 0.023,-9.598c0.009,-2.051 -0.106,-3.912 -0.346,-5.586c-0.566,-3.932 -2.468,-7.664 -5.707,-11.196c-0.996,-1.087 -2.21,-2.044 -3.644,-2.872c-3.724,-2.147 -9.064,1.011 -11.436,3.221c-2.053,1.912 -2.635,4.625 -5.733,5.641c-0.596,0.195 -1.626,0.516 -2.45,0.681c-0.026,0.005 -0.053,0.008 -0.081,0.008c-0.186,-0 -0.339,-0.126 -0.339,-0.278c-0,-0.018 0.002,-0.036 0.006,-0.054c0.272,-1.117 0.857,-2.157 1.757,-3.12c0.706,-0.758 1.628,-1.332 2.392,-2.04c0.11,-0.103 0.082,-0.155 -0.084,-0.157c-1.501,-0.014 -2.981,-0.047 -4.442,-0.099c-1.376,-0.049 -4.229,-0.59 -4.616,-1.842c-0.027,-0.09 -0.013,-0.176 0.04,-0.258c0.492,-0.734 2.033,-0.852 2.934,-0.789c2.185,0.16 4.32,0.225 6.403,0.195c0.987,-0.014 1.886,-0.297 2.695,-0.848c3.019,-2.06 5.949,-3.54 9.674,-4.24c0.014,-0.003 0.028,-0.008 0.04,-0.015c0.051,-0.029 0.065,-0.087 0.03,-0.128c-0.009,-0.01 -0.02,-0.018 -0.033,-0.025c-0.763,-0.388 -1.578,-0.78 -2.446,-1.178c-3.143,-1.439 -6.477,-2.171 -10.003,-2.197c-0.781,-0.005 -1.484,0.033 -2.11,0.478c-5.286,3.743 -11.662,7.192 -18.785,7.654c-0.211,0.012 -0.38,0.087 -0.508,0.222c-1.243,1.315 -2.402,2.482 -3.479,3.501c-1.006,0.953 -2.719,2.011 -4.307,2.164c-0.121,0.013 -0.23,-0.01 -0.326,-0.068c-0.482,-0.293 -0.578,-0.683 -0.286,-1.17c1.046,-1.747 2.749,-3.271 4.438,-4.693c0.028,-0.024 0.044,-0.055 0.044,-0.088c-0,-0.067 -0.064,-0.122 -0.145,-0.126c-2.275,-0.136 -4.859,-0.198 -7.752,-0.187c-1.047,0.005 -4.058,-0.088 -4.334,-1.214c-0.212,-0.857 1.043,-1.208 1.871,-1.304c2.707,-0.312 5.379,-0.399 8.014,-0.261c1.402,0.071 2.768,0.153 4.099,0.244c3.131,0.214 6.327,-0.353 9.589,-1.702c2.914,-1.205 5.271,-2.387 7.072,-3.546c0.108,-0.069 0.093,-0.109 -0.043,-0.12c-2.432,-0.209 -5.027,-0.423 -7.786,-0.643c-2.761,-0.22 -5.32,-0.131 -7.675,0.266c-2.214,0.374 -4.329,0.722 -6.346,1.044c-2.527,0.404 -5.269,0.047 -7.594,-0.851c-2.274,-0.882 -4.65,-1.909 -6.655,-3.021c-0.723,-0.401 -0.558,-1.219 0.266,-1.406c1.563,-0.352 2.907,-0.275 4.031,0.231c1.047,0.472 2.139,0.947 3.274,1.425c2.397,1.007 4.96,1.18 7.688,0.519c0.012,-0.003 0.025,-0.008 0.036,-0.014c0.06,-0.033 0.077,-0.099 0.038,-0.146c-0.007,-0.009 -0.016,-0.017 -0.027,-0.024c-0.31,-0.205 -0.654,-0.377 -1.033,-0.517c-1.487,-0.541 -2.797,-1.084 -3.93,-1.628c-0.949,-0.458 -0.988,-0.961 -0.118,-1.51c0.065,-0.041 0.133,-0.074 0.202,-0.102c0.945,-0.386 2.058,-0.391 3.008,-0.014c2.608,1.038 5.501,2.112 8.385,2.123c0.993,0.004 2.042,-0.026 3.146,-0.088c0.146,-0.007 0.164,-0.049 0.054,-0.126c-3.257,-2.265 -5.726,-4.983 -7.406,-8.156c-0.904,-1.708 -2.453,-2.625 -4.647,-2.752c-3.112,-0.181 -6.194,-0.321 -9.05,-1.351c-1.122,-0.404 -1.959,-0.842 -2.511,-1.312c-0.356,-0.304 -0.43,-0.704 -0.222,-1.2c0.35,-0.843 1.181,-1.176 2.174,-0.775c1.699,0.687 3.479,1.371 5.367,1.472c1.938,0.103 3.854,0.207 5.75,0.313c0.002,0 0.004,0 0.007,0c0.051,0 0.094,-0.034 0.094,-0.076c-0,-0.016 -0.006,-0.032 -0.017,-0.045c-1.221,-1.455 -2.709,-3.001 -4.495,-4.061c-1.205,-0.714 -2.434,-1.389 -3.688,-2.024c-0.764,-0.387 -0.976,-1.016 -0.441,-1.656c0.559,-0.666 1.28,-0.816 2.164,-0.45c3.644,1.51 7.089,3.328 9.273,6.217c1.907,2.526 3.183,5.237 4.747,7.878c2.076,3.502 5.565,6.745 10.104,7.701c1.741,0.366 3.79,0.539 6.148,0.519c2.624,-0.022 5.525,-0.018 8.704,0.013c0.298,0.004 0.343,-0.082 0.134,-0.258c-2.117,-1.767 -4.302,-2.996 -6.554,-3.688c-1.655,-0.511 -3.388,-0.7 -5.097,-0.983c-2.15,-0.357 -5.074,-1.291 -6.548,-2.683c-0.663,-0.626 -0.353,-1.941 0.861,-1.87c0.438,0.027 0.848,0.113 1.232,0.255c2.631,0.992 5.239,1.546 8.048,1.906c4.246,0.544 8.227,2.636 11.04,5.284c1.058,0.996 2.08,2.006 3.065,3.031c0.824,0.854 1.948,1.346 3.038,1.92c5.178,2.73 9.842,6.882 13.23,10.921c0.022,0.028 0.06,0.044 0.1,0.044c0.057,-0 0.106,-0.032 0.119,-0.077c0.136,-0.423 0.232,-0.851 0.286,-1.285c0.659,-5.182 0.201,-11.841 -4.58,-15.831c-1.983,-1.655 -4.597,-3.091 -7.843,-4.306c-4.7,-1.76 -9.619,-3.29 -14.296,-5.242c-1.094,-0.456 -2.46,-0.69 -3.678,-0.734c-1.332,-0.047 -2.604,-0.19 -3.815,-0.428c-4.637,-0.91 -8.693,-2.212 -12.17,-3.905c-0.707,-0.344 -1.399,-0.756 -2.076,-1.236c-0.414,-0.291 -0.202,-0.716 0.047,-1.024c0.648,-0.802 1.455,-1.008 2.419,-0.618c1.68,0.679 3.395,1.392 5.145,2.139c0.534,0.229 0.592,0.166 0.175,-0.189c-0.696,-0.592 -1.379,-1.218 -2.049,-1.879c-0.69,-0.683 -1.457,-1.427 -1.484,-2.35c-0.027,-0.939 0.962,-1.436 1.921,-0.893c0.37,0.209 0.703,0.445 0.999,0.709c1.203,1.076 2.399,2.156 3.59,3.237c1.545,1.406 3.957,3.216 6.299,3.428c2.365,0.211 4.781,0.387 6.955,1.257c1.48,0.596 2.903,1.264 4.428,1.766c3.633,1.196 7.098,2.355 10.393,3.479c0.182,0.063 0.219,0.026 0.111,-0.109c-1.702,-2.164 -2.863,-4.551 -4.468,-6.698c-0.299,-0.397 -0.375,-0.833 -0.229,-1.307c0.219,-0.714 1.141,-1.211 1.945,-0.72c0.285,0.174 0.529,0.373 0.733,0.596c1.149,1.238 2.268,2.681 3.358,4.331c1.106,1.671 2.256,3.329 3.449,4.973c0.929,1.28 2.745,2.062 4.273,2.801c0.139,0.066 0.21,0.033 0.212,-0.099c0.007,-1.875 -0,-3.886 -0.02,-6.033c-0.054,-6.072 -5.222,-9.362 -11.497,-11.575c-2.932,-1.033 -5.969,-1.98 -9.112,-2.842c-3.609,-0.987 -7.48,-1.659 -11.614,-2.016c-0.965,-0.082 -1.493,-0.489 -1.585,-1.219c-0.098,-0.777 0.235,-1.184 1.225,-1.195c1.852,-0.022 3.707,-0.007 5.565,0.044c0.392,0.011 0.771,0.074 1.137,0.19c0.184,0.058 0.225,0.018 0.124,-0.121c-1.002,-1.399 -1.827,-2.764 -2.473,-4.097c-0.602,-1.244 -1.295,-2.727 -2.809,-3.342c-1.841,-0.747 -3.88,-1.187 -5.629,-1.969c-2.019,-0.899 -3.865,-1.997 -5.538,-3.293c-0.736,-0.571 -0.765,-1.186 -0.088,-1.845c0.7,-0.681 1.608,-0.637 2.436,-0.074c2.501,1.704 5.288,3.029 8.361,3.973c0.013,0.004 0.027,0.006 0.041,0.006c0.061,0 0.111,-0.04 0.111,-0.09c-0,-0.011 -0.003,-0.021 -0.007,-0.031c-1.207,-2.66 -2.396,-5.311 -3.567,-7.953c-0.3,-0.679 -0.021,-1.221 0.838,-1.625c0.791,-0.374 1.713,0.118 2.056,0.67c0.583,0.933 1.136,1.956 1.659,3.067c1.788,3.799 3.566,7.543 5.336,11.232c1.043,2.176 2.433,4.054 4.169,5.632c1.43,1.299 3.957,1.93 5.982,2.537c0.13,0.039 0.169,0.006 0.115,-0.099Z" style="fill:#344234;fill-rule:nonzero;"/>
                <path d="M167.412,92.672c-0.164,0.286 -0.082,0.344 0.246,0.173c0.747,-0.391 1.534,-0.772 2.362,-1.142c1.308,-0.585 4.219,-1.392 5.026,0.071c0.301,0.546 0.092,0.966 -0.625,1.261c-2.319,0.953 -4.549,1.947 -6.905,2.735c-1.1,0.368 -2.17,0.733 -3.136,1.318c-0.836,0.507 -1.68,0.972 -2.53,1.395c-2.311,1.151 -5.077,1.837 -7.708,2.359c-1.588,0.316 -3.072,0.969 -4.654,1.302c-1.379,0.291 -2.691,-0.769 -1.853,-1.818c0.588,-0.739 1.84,-1.244 2.863,-1.527c2.046,-0.566 4.267,-1.151 6.665,-1.755c2.988,-0.754 5.178,-2.249 6.571,-4.484c1.239,-1.985 2.451,-4.269 3.638,-6.852c0.323,-0.705 1.339,-1.461 2.301,-1.049c0.626,0.269 0.868,0.72 0.727,1.351c-0.502,2.258 -1.77,4.534 -2.988,6.662Z" style="fill:#344234;fill-rule:nonzero;"/>
                <path d="M76.879,92.763c-0.96,-1.642 -1.812,-3.282 -2.557,-4.918c-0.39,-0.854 -0.814,-2.087 0.034,-2.837c0.521,-0.461 1.393,-0.511 1.881,0.022c0.273,0.298 0.494,0.615 0.663,0.95c1.308,2.647 2.641,5.358 4.407,7.78c1.538,2.109 4.038,2.966 6.807,3.496c2.694,0.516 5.296,1.105 7.806,1.765c1.026,0.27 3.179,1.014 2.806,2.14c-0.431,1.29 -1.696,1.18 -2.981,0.793c-3.526,-1.06 -7.062,-1.656 -10.646,-2.455c-1.208,-0.269 -2.792,-1.098 -3.923,-1.757c-1.265,-0.736 -2.358,-1.245 -3.277,-1.527c-2.508,-0.767 -5.248,-1.824 -8.22,-3.172c-1.018,-0.461 -1.16,-1.013 -0.424,-1.656c0.029,-0.027 0.065,-0.052 0.108,-0.074c0.899,-0.454 1.821,-0.511 2.765,-0.17c1.584,0.571 3.118,1.151 4.603,1.741c0.191,0.077 0.24,0.036 0.148,-0.121Z" style="fill:#344234;fill-rule:nonzero;"/>
                <path d="M65.234,85.112c2.591,0 5.162,0.918 5.545,3.205c0.003,0.019 0.005,0.038 0.005,0.057c-0,0.22 -0.205,0.406 -0.472,0.429c-0.911,0.079 -1.797,0.091 -2.659,0.036c-1.753,-0.113 -2.779,-2.024 -2.913,-3.287c-0.001,-0.006 -0.001,-0.012 -0.002,-0.018c-0.012,-0.221 0.203,-0.411 0.476,-0.421c0.007,-0 0.014,-0.001 0.02,-0.001Z" style="fill:#344234;fill-rule:nonzero;"/>
                <path d="M179.37,85.36c0.05,1.897 -1.329,3.52 -3.816,3.501c-0.642,-0.006 -1.305,0.008 -1.961,-0c-0.111,-0.003 -0.2,-0.077 -0.2,-0.168c-0,-0.006 0,-0.012 0.001,-0.019c0.421,-2.746 2.729,-3.498 5.788,-3.463c0.121,0 0.183,0.05 0.188,0.149Z" style="fill:#344234;fill-rule:nonzero;"/>
                <path d="M67.011,99.068c-2.157,-0.222 -4.384,-0.829 -5.485,-2.416c-0.54,-0.782 -0.878,-1.864 -1.012,-3.246c-0.001,-0.004 -0.001,-0.008 -0.001,-0.012c0,-0.08 0.081,-0.145 0.178,-0.145c0.005,-0 0.01,-0 0.014,0c4.169,0.286 6.918,2.109 6.44,5.731c0,0.001 0,0.001 0,0.002c-0.008,0.054 -0.067,0.093 -0.132,0.086c-0,0 -0.001,0 -0.002,0Z" style="fill:#344234;fill-rule:nonzero;"/>
                <path d="M177.812,98.843c-0.269,0.038 -0.464,0.192 -0.71,0.269c-0.121,0.037 -0.186,0.003 -0.195,-0.102c-0.242,-2.795 0.976,-4.984 4.603,-5.453c0.61,-0.079 1.226,-0.171 1.847,-0.275c0.007,-0.001 0.015,-0.002 0.022,-0.002c0.055,0 0.101,0.037 0.101,0.082c0,0.006 -0.001,0.011 -0.002,0.016c-0.132,0.641 -0.284,1.326 -0.454,2.054c-0.397,1.711 -1.723,2.933 -3.886,3.224c-0.447,0.061 -0.888,0.123 -1.326,0.187Z" style="fill:#344234;fill-rule:nonzero;"/>
                <path d="M188.73,114.759c-0.127,1.027 -0.726,2.219 -1.746,2.856c-0.959,0.599 -2.54,0.371 -3.64,0.072c-0.124,-0.033 -0.172,-0.102 -0.145,-0.206c0.532,-2.156 2.961,-2.79 5.367,-2.867c0.123,-0.004 0.178,0.045 0.164,0.145Z" style="fill:#344234;fill-rule:nonzero;"/>
                <path d="M59.622,117.978c-2.961,0.587 -3.866,-1.189 -4.384,-3.079c-0.025,-0.097 0.023,-0.148 0.145,-0.153c2.096,-0.113 4.865,0.609 5.104,2.559c0.008,0.078 -0.017,0.157 -0.071,0.222c-0.188,0.233 -0.453,0.383 -0.794,0.451Z" style="fill:#344234;fill-rule:nonzero;"/>
                <path d="M101.404,178.957c0.002,-0.786 -0.635,-1.426 -1.422,-1.427l-46.576,-0.066c-0.787,-0.002 -1.427,0.636 -1.428,1.423c-0.002,0.786 0.635,1.426 1.422,1.427l46.576,0.066c0.787,0.001 1.427,-0.636 1.428,-1.423Z" style="fill:#344234;"/>
                <path d="M145.323,180.344c-1.073,-0.002 -2.83,-0.807 -2.362,-1.892c0.26,-0.604 0.791,-0.908 1.592,-0.911c13.947,-0.057 29.312,-0.059 46.095,-0.006c2.564,0.008 2.379,2.752 0.068,2.757c-14.924,0.05 -30.055,0.067 -45.393,0.052Z" style="fill:#344234;fill-rule:nonzero;"/>
            </g>
        </g>
    </g>
</svg>
