<svg width="100%" height="100%" viewBox="0 0 512 512"
  xmlns="http://www.w3.org/2000/svg"
  xmlns:xlink="http://www.w3.org/1999/xlink" style="fill-rule:evenodd;">
  <symbol id="outline">
    <path d="M186.086,471.635l69.914,40.365l69.914,-40.365l-19.318,-11.154l-50.596,29.212l-50.596,-29.212l-19.318,11.154Z" />
    <path d="M186.086,40.365l69.914,-40.365l69.914,40.365l-19.318,11.154l-50.596,-29.212l-50.596,29.212l-19.318,-11.154Z" />
  </symbol>
  <symbol id="logomark">
    <path d="M256,116.846l101.192,-58.423c0,0 120.511,69.577 120.511,69.577l0,256l-120.511,69.577l-50.596,-29.212l120.51,-69.577l0,-197.576l-69.914,-40.366l-50.596,29.212l69.914,40.365l0,139.154l-120.51,69.577l-120.51,-69.577l0,-139.154l69.914,-40.365l-50.596,-29.212l-69.914,40.366l0,197.576l120.51,69.577l-50.596,29.212l-120.511,-69.577l0,-256l120.511,-69.577l101.192,58.423Zm0,58.424c0,0 -69.914,40.365 -69.914,40.365l0,80.73l69.914,40.365l69.914,-40.365l0,-80.73l-69.914,-40.365Z" style="fill:#374047;"/>
  </symbol>
  <use xlink:href="#outline" x="0" y="0" width="100%" height="100%" fill="#aeb3b8" />
  <use xlink:href="#logomark" x="0" y="0" width="100%" height="100%" fill="#384048" />
</svg>
