<svg width="100%" height="100%" viewBox="0 0 540 540" xmlns="http://www.w3.org/2000/svg" xmlns:xlink="http://www.w3.org/1999/xlink" style="fill-rule:evenodd;">

  <style>
    .sml { visibility: visible; }
    .lrg { visibility: hidden; }

    @media screen and (min-width: 640px){
      .lrg { visibility: visible; }
      .sml { visibility: hidden; }
    }
  </style>

  <symbol id="outline">
    <path d="M37,135.477l233,-134.522l233,134.522l0,269.046l-233,134.522l-233,-134.522l0,-269.046Zm233,-110.274l212,122.399l0,244.796l-212,122.399l-212,-122.399l0,-244.796l212,-122.399Z" />
  </symbol>

  <symbol id="logomark">
    <path class="lrg" d="M92,167.232l89,-51.385l89,51.385l89,-51.385l89,51.385l0,205.536l-89,51.385l-34,-19.63l89,-51.385l0,-166.276l-55,-31.755l-55,31.755l55,31.754l0,102.768l-89,51.384l-89,-51.384l0,-102.768l55,-31.754l-55,-31.755l-55,31.755l0,166.276l89,51.385l-34,19.63l-89,-51.385l0,-205.536Zm123,71.014l55,-31.755l55,31.755l0,63.508l-55,31.755l-55,-31.755l0,-63.508Z" />
    <path class="sml" d="M92,167.232l89,-51.385l89,51.385l89,-51.385l89,51.385l0,205.536l-89,51.385l-55,-31.755l89,-51.384l0,-142.028l-34,-19.63l-34,19.63l34,19.63l0,102.768l-89,51.384l-89,-51.384l0,-102.768l34,-19.63l-34,-19.63l-34,19.63l0,142.028l89,51.384l-55,31.755l-89,-51.385l0,-205.536Zm144,83.138l34,-19.63l34,19.63l0,39.26l-34,19.63l-34,-19.63l0,-39.26Z" />
  </symbol>

  <use xlink:href="#outline" x="0" y="0" width="100%" height="100%" fill="#aeb3b8" />
  <use xlink:href="#logomark" x="0" y="0" width="100%" height="100%" fill="#384048" />

</svg>
