<svg xmlns="http://www.w3.org/2000/svg" xml:space="preserve" fill-rule="evenodd" stroke-miterlimit="1.5" clip-rule="evenodd" viewBox="0 0 600 624">
  <path id="header-600" fill="none" d="M0 0h600v624H0z"/>
  <clipPath id="_clip1">
    <path d="M0 0h600v624H0z"/>
  </clipPath>
  <g clip-path="url(#_clip1)">
    <path id="bg" fill="#0a0a0a" d="M0 0h600v624H0z"/>
    <g id="header">
      <g id="body" fill="none" stroke="#adfd2d">
        <g id="o100">
          <path d="M60 346.41v-5.773l-5-2.887-5 2.887v5.773l5 2.887 5-2.887Zm5-14.434-5-2.886v-5.774l5-2.887 5 2.887v5.774l-5 2.886Zm-15 31.755v-5.774l-5-2.887-5 2.887v5.774l5 2.886 5-2.886Zm5 129.903v-5.773l-5-2.887-5 2.887v5.773l5 2.887 5-2.887ZM540 346.41v-5.773l5-2.887 5 2.887v5.773l-5 2.887-5-2.887Zm10 17.321v-5.774l5-2.887 5 2.887v5.774l-5 2.886-5-2.886Zm-5 129.903v-5.773l5-2.887 5 2.887v5.773l-5 2.887-5-2.887ZM530 329.09v-5.774l5-2.887 5 2.887v5.774l-5 2.886-5-2.886Zm-115-60.622 5 2.887 5-2.887v-5.774l-5-2.886-5 2.886v5.774Zm-60-40.415 5 2.887 5-2.887v-5.773l-5-2.887-5 2.887v5.773Zm120 75.056 5 2.887 5-2.887v-5.774l-5-2.886-5 2.886v5.774Zm-240-75.058 5 2.887 5-2.887v-5.773l-5-2.887-5 2.887v5.773Zm-60 40.417 5 2.887 5-2.887v-5.774l-5-2.886-5 2.886v5.774Zm-60 34.641 5 2.887 5-2.887v-5.774l-5-2.886-5 2.886v5.774Z"/>
        </g>
        <g id="o40" opacity=".4">
          <path d="m115 308.882-5-2.886-5 2.886v5.774l-20 11.547-5-2.887-5 2.887v5.773l-10 5.774-10-5.774-15 8.661-5-2.887v-5.774l5-2.886 5 2.886v17.321l10 5.773v11.547l-5 2.887v5.774l5 2.886v92.376l-5 2.887v5.774l5 2.886m0 17.321-5 2.887v5.773l5 2.887v109.697m430-311.77 5-2.886 5 2.886v5.774l20 11.547 5-2.887 5 2.887v5.773l10 5.774 10-5.774 15 8.661 5-2.887v-5.774l-5-2.886-5 2.886v17.321l-10 5.773v11.547l5 2.887v5.774l-5 2.886v92.376l5 2.887v5.774l-5 2.886m0 17.321 5 2.887v5.773l-5 2.887v109.697M340 225.167l5-2.887 5 2.887v5.773l10 5.774 5-2.887 5 2.887v5.773l30 17.321 5-2.887 5 2.887v5.773m15 8.66 5-2.886 5 2.886v5.774l25 14.434 5-2.887 5 2.887v5.773m-210.001-75.054-4.998-2.888-5.001 2.888v5.774l-9.997 5.774-5.002-2.887-5.001 2.886v5.773l-30 17.32-5-2.887-5 2.887v5.774m-15 8.659-5-2.886-5 2.886v5.774l-25 14.434-5-2.887-5 2.887v5.773"/>
        </g>
      </g>
      <g id="top">
        <g id="o1001" fill="none" stroke="#adfd2d">
          <path d="m300 69.282 60 34.641v69.282l-60 34.641-60-34.641v-69.282l60-34.641Zm40 132.791v11.547l10 5.773 10-5.773v-11.547l-10-5.774-10 5.774Zm-10 11.547v5.773l5 2.887 5-2.887v-5.773l-5-2.887-5 2.887Zm35-72.169v-5.774l5-2.886 5 2.886v5.774l-5 2.887-5-2.887Zm-35 60.622v-5.774l5-2.887 5 2.887v5.774l-5 2.886-5-2.886Zm-15 8.66v-5.774l5-2.886 5 2.886v5.774l-5 2.887-5-2.887Zm40-17.321v-5.773l5-2.887 5 2.887v5.773l-5 2.887-5-2.887Zm15-25.98v-5.774l5-2.887 5 2.887v5.774l-5 2.886-5-2.886Zm0-51.962v-5.773l5-2.887 5 2.887v5.773l-5 2.887-5-2.887Zm-15-25.981v-5.773l5-2.887 5 2.887v5.773l-5 2.887-5-2.887Zm-45-25.98v-5.774l5-2.887 5 2.887v5.774l-5 2.886-5-2.886Zm-30 0v-5.774l5-2.887 5 2.887v5.774l-5 2.886-5-2.886Zm-45 25.98v-5.773l5-2.887 5 2.887v5.773l-5 2.887-5-2.887Zm-15 25.981v-5.773l5-2.887 5 2.887v5.773l-5 2.887-5-2.887Zm0 51.962v-5.774l5-2.887 5 2.887v5.774l-5 2.886-5-2.886Zm110-86.603v-5.773l5-2.887 5 2.887v5.773l-5 2.887-5-2.887Zm-70 0v-5.773l5-2.887 5 2.887v5.773l-5 2.887-5-2.887Zm-35 60.622v-5.774l5-2.886 5 2.886v5.774l-5 2.887-5-2.887Zm145 49.075 15-8.661 5 2.887v5.774l-5 2.886-5-2.886v-17.321m-140 40.417 10 5.773 10-5.773v-11.547l-10-5.774-10 5.774v11.547Zm35-2.888 5 2.887 5-2.887v-5.774l-5-2.886-5 2.886v5.774Zm-15 8.66 5 2.887 5-2.887v-5.773l-5-2.887-5 2.887v5.773Zm0-17.32 5 2.886 5-2.886V196.3l-5-2.887-5 2.887v5.774Zm-24.999-8.661 5 2.887 5-2.887v-5.774l-5-2.886-5 2.886v5.774ZM380 103.923v-17.32l5-2.887 5 2.887v5.773l-5 2.887-15-8.66m-60-34.641-15-8.661v-5.773l5-2.887 5 2.887v5.773l-15 8.661m-60 34.641-15 8.66-5-2.887v-5.773l5-2.887 5 2.887v17.32m0 69.282v17.321l-5 2.886-5-2.886v-5.774l5-2.887 15 8.661"/>
        </g>
        <g id="o401" fill="none" stroke="#adfd2d" opacity=".4">
          <path d="M325 77.942v-5.773l-5-2.887-5 2.887-20-11.547v-5.774l5-2.886 5 2.886v5.774l-20 11.547-5-2.887-5 2.887v5.773m65 8.661 5-2.887 5 2.887v5.773l20 11.547 5-2.887v-5.773l-5-2.887-5 2.887v23.094l5 2.887v5.773l-5 2.887m0 17.32 5 2.887v5.774l-5 2.886v23.094l5 2.887 5-2.887v-5.773l-5-2.887-20 11.547v5.774l-5 2.886-5-2.886m-105-43.302-5 2.887v5.774l5 2.886v23.094l-5 2.887-5-2.887v-5.773l5-2.887 20 11.547v5.774l5 2.886 5-2.886m-25-60.622-5-2.887v-5.773l5-2.887V95.263l-5-2.887-5 2.887v5.773l5 2.887 20-11.547v-5.773l5-2.887 5 2.887m115 60.621 5-2.886v-11.547l-5-2.887m-30-51.962v-5.773l-10-5.774-5 2.887m-60 0-5-2.887-10 5.774v5.773m-30 51.962-5 2.887v11.547l5 2.886"/>
        </g>
        <path id="chonk" fill="#adfd2d" d="m300 92.376 40 23.094v46.188l-40 23.094-40-23.094V115.47l40-23.094Zm0 21.046 21.773 12.571v25.142L300 163.706l-21.773-12.571v-25.142L300 113.422Z"/>
      </g>
    </g>
  </g>
</svg>
