<svg
	xmlns="http://www.w3.org/2000/svg"
	fill-rule="evenodd"
	clip-rule="evenodd"
	stroke-miterlimit="1.5"
	viewBox="0 0 360 555"
	shape-rendering="crispEdges"
>
	<g id="header">
		<g id="body" fill="none" stroke="#adfd2d">
			<g id="o100">
				<!-- <path
					vector-effect="non-scaling-stroke"
					d="M300 560.03V277.128l-120-69.282-120 69.282V560.03M50 294.449v-5.774l-5-2.887-5 2.887v5.774l5 2.886 5-2.886Zm5 129.903v-5.773l-5-2.887-5 2.887v5.773l5 2.887 5-2.887Zm0-144.337-5-2.887v-5.773l5-2.887 5 2.887v5.773l-5 2.887Zm235-20.207v-5.774l5-2.887 5 2.887v5.774l-5 2.886-5-2.886Zm10 17.32 5 2.887 5-2.887v-5.773l-5-2.887-5 2.887v5.773Zm-65-49.075 5 2.887 5-2.887v-5.773l-5-2.887-5 2.887v5.773Zm75 66.396 5 2.886 5-2.886v-5.774l-5-2.887-5 2.887v5.774Zm-5 129.903 5 2.887 5-2.887v-5.773l-5-2.887-5 2.887v5.773ZM115 228.051l5 2.887 5-2.887v-5.773l-5-2.887-5 2.887v5.773Zm-55 31.757 5 2.886 5-2.886v-5.774l-5-2.887-5 2.887v5.774Z"
				/> -->
				<path
					vector-effect="non-scaling-stroke"
					d="M50 294.449v-5.774l-5-2.887-5 2.887v5.774l5 2.886 5-2.886Zm5 129.903v-5.773l-5-2.887-5 2.887v5.773l5 2.887 5-2.887Zm0-144.337-5-2.887v-5.773l5-2.887 5 2.887v5.773l-5 2.887Zm235-20.207v-5.774l5-2.887 5 2.887v5.774l-5 2.886-5-2.886Zm10 17.32 5 2.887 5-2.887v-5.773l-5-2.887-5 2.887v5.773Zm-65-49.075 5 2.887 5-2.887v-5.773l-5-2.887-5 2.887v5.773Zm75 66.396 5 2.886 5-2.886v-5.774l-5-2.887-5 2.887v5.774Zm-5 129.903 5 2.887 5-2.887v-5.773l-5-2.887-5 2.887v5.773ZM115 228.051l5 2.887 5-2.887v-5.773l-5-2.887-5 2.887v5.773Zm-55 31.757 5 2.886 5-2.886v-5.774l-5-2.887-5 2.887v5.774Z"
				/>
			</g>
			<g id="o40" opacity=".4">
				<path
					vector-effect="non-scaling-stroke"
					d="m140 225.167-5-2.887-5 2.887v5.773l-10 5.774-5-2.887-5 2.887v5.773l-25 14.434-5-2.887-5 2.887v5.773l-10 5.774-10-5.774-15 8.661-5-2.887v-5.774l5-2.886 5 2.886v17.321l10 5.773v11.547l-5 2.887v5.774l5 2.886v92.376l-5 2.887v5.774l5 2.886m0 17.321-5 2.887v5.773l5 2.887V551.37m165-326.203 5-2.887 5 2.887v5.773l10 5.774 5-2.887 5 2.887v5.773l25 14.434 5-2.887 5 2.887v5.773l10 5.774 10-5.774 15 8.661 5-2.887v-5.774l-5-2.886-5 2.886v17.321l-10 5.773v11.547l5 2.887v5.774l-5 2.886v92.376l5 2.887v5.774l-5 2.886m0 17.321 5 2.887v5.773l-5 2.887V551.37"
				/>
			</g>
		</g>
		<g id="top">
			<g id="o1001" fill="none" stroke="#adfd2d">
				<path
					vector-effect="non-scaling-stroke"
					d="m180 69.282 60 34.641v69.282l-60 34.641-60-34.641v-69.282l60-34.641Zm40 132.791v11.547l10 5.773 10-5.773v-11.547l-10-5.774-10 5.774Zm-10 11.547v5.773l5 2.887 5-2.887v-5.773l-5-2.887-5 2.887Zm35-72.169v-5.774l5-2.886 5 2.886v5.774l-5 2.887-5-2.887Zm-35 60.622v-5.774l5-2.887 5 2.887v5.774l-5 2.886-5-2.886Zm-15 8.66v-5.774l5-2.886 5 2.886v5.774l-5 2.887-5-2.887Zm40-17.321v-5.773l5-2.887 5 2.887v5.773l-5 2.887-5-2.887Zm15-25.98v-5.774l5-2.887 5 2.887v5.774l-5 2.886-5-2.886Zm0-51.962v-5.773l5-2.887 5 2.887v5.773l-5 2.887-5-2.887Zm-15-25.981v-5.773l5-2.887 5 2.887v5.773l-5 2.887-5-2.887Zm-45-25.98v-5.774l5-2.887 5 2.887v5.774l-5 2.886-5-2.886Zm-30 0v-5.774l5-2.887 5 2.887v5.774l-5 2.886-5-2.886Zm-45 25.98v-5.773l5-2.887 5 2.887v5.773l-5 2.887-5-2.887Zm-15 25.981v-5.773l5-2.887 5 2.887v5.773l-5 2.887-5-2.887Zm0 51.962v-5.774l5-2.887 5 2.887v5.774l-5 2.886-5-2.886Zm110-86.603v-5.773l5-2.887 5 2.887v5.773l-5 2.887-5-2.887Zm-70 0v-5.773l5-2.887 5 2.887v5.773l-5 2.887-5-2.887Zm-35 60.622v-5.774l5-2.886 5 2.886v5.774l-5 2.887-5-2.887Zm145 49.075 15-8.661 5 2.887v5.774l-5 2.886-5-2.886v-17.321m-140 40.417 10 5.773 10-5.773v-11.547l-10-5.774-10 5.774v11.547Zm35-2.888 5 2.887 5-2.887v-5.774l-5-2.886-5 2.886v5.774Zm-15 8.66 5 2.887 5-2.887v-5.773l-5-2.887-5 2.887v5.773Zm0-17.32 5 2.886 5-2.886V196.3l-5-2.887-5 2.887v5.774Zm-24.999-8.661 5 2.887 5-2.887v-5.774l-5-2.886-5 2.886v5.774ZM260 103.923v-17.32l5-2.887 5 2.887v5.773l-5 2.887-15-8.66m-60-34.641-15-8.661v-5.773l5-2.887 5 2.887v5.773l-15 8.661m-60 34.641-15 8.66-5-2.887v-5.773l5-2.887 5 2.887v17.32m0 69.282v17.321l-5 2.886-5-2.886v-5.774l5-2.887 15 8.661"
				/>
			</g>
			<g id="o401" fill="none" stroke="#adfd2d" opacity=".4">
				<path
					vector-effect="non-scaling-stroke"
					d="M205 77.942v-5.773l-5-2.887-5 2.887-20-11.547v-5.774l5-2.886 5 2.886v5.774l-20 11.547-5-2.887-5 2.887v5.773m65 8.661 5-2.887 5 2.887v5.773l20 11.547 5-2.887v-5.773l-5-2.887-5 2.887v23.094l5 2.887v5.773l-5 2.887m0 17.32 5 2.887v5.774l-5 2.886v23.094l5 2.887 5-2.887v-5.773l-5-2.887-20 11.547v5.774l-5 2.886-5-2.886m-105-43.302-5 2.887v5.774l5 2.886v23.094l-5 2.887-5-2.887v-5.773l5-2.887 20 11.547v5.774l5 2.886 5-2.886m-25-60.622-5-2.887v-5.773l5-2.887V95.263l-5-2.887-5 2.887v5.773l5 2.887 20-11.547v-5.773l5-2.887 5 2.887m115 60.621 5-2.886v-11.547l-5-2.887m-30-51.962v-5.773l-10-5.774-5 2.887m-60 0-5-2.887-10 5.774v5.773m-30 51.962-5 2.887v11.547l5 2.886"
				/>
			</g>
			<path
				id="chonk"
				fill="#adfd2d"
				d="m180 92.376 40 23.094v46.188l-40 23.094-40-23.094V115.47l40-23.094Zm0 21.046 21.773 12.571v25.142L180 163.706l-21.773-12.571v-25.142L180 113.422Z"
			/>
		</g>
	</g>
</svg>
