<svg 
	clip-rule="evenodd" 
	fill-rule="evenodd"
	stroke-miterlimit="1.5" 
	viewBox="-2 -2 184 190"
	width="100%"
	height="100%"
	preserveAspectRatio="none"
	xmlns="http://www.w3.org/2000/svg">
  <g>
    <g fill="none" stroke="#adfd2d" stroke-width="2px" vector-effect="non-scaling-stroke">
      <g id="light" opacity=".4">
        <path d="m165 112.583 5-2.886V98.15l-5-2.887"/>
        <path d="M135 43.301v-5.773l-10-5.774-5 2.887"/>
        <path d="m60 34.641-5-2.887-10 5.774v5.773"/>
        <path d="m15 95.263-5 2.887v11.547l5 2.886"/>
        <path d="M115 43.301v-5.773l-5-2.887-5 2.887-20-11.547v-5.774l5-2.886 5 2.886v5.774L75 37.528l-5-2.887-5 2.887v5.773"/>
        <path d="m130 51.962 5-2.887 5 2.887v5.773l20 11.547 5-2.887v-5.773l-5-2.887-5 2.887v23.094l5 2.887v5.773l-5 2.887"/>
        <path d="m155 112.583 5 2.887v5.774l-5 2.886v23.094l5 2.887 5-2.887v-5.773l-5-2.887-20 11.547v5.774l-5 2.886-5-2.886"/>
        <path d="m25 112.583-5 2.887v5.774l5 2.886v23.094l-5 2.887-5-2.887v-5.773l5-2.887 20 11.547v5.774l5 2.886 5-2.886"/>
        <path d="m25 95.263-5-2.887v-5.773l5-2.887V60.622l-5-2.887-5 2.887v5.773l5 2.887 20-11.547v-5.773l5-2.887 5 2.887"/>
      </g>
      <g id="full">
        <path d="m90 34.641 60 34.641v69.282l-60 34.641-60-34.641V69.282l60-34.641Z" vector-effect="non-scaling-stroke" />
        <path d="M130 167.432v11.547l10 5.773 10-5.773v-11.547l-10-5.774-10 5.774Z"/>
        <path d="M120 178.979v5.773l5 2.887 5-2.887v-5.773l-5-2.887-5 2.887Z"/>
        <path d="M155 106.81v-5.774l5-2.886 5 2.886v5.774l-5 2.887-5-2.887Z"/>
        <path d="M120 167.432v-5.774l5-2.887 5 2.887v5.774l-5 2.886-5-2.886Z"/>
        <path d="M105 176.092v-5.774l5-2.886 5 2.886v5.774l-5 2.887-5-2.887Z"/>
        <path d="M145 158.771v-5.773l5-2.887 5 2.887v5.773l-5 2.887-5-2.887Z"/>
        <path d="M160 132.791v-5.774l5-2.887 5 2.887v5.774l-5 2.886-5-2.886Z"/>
        <path d="M160 80.829v-5.773l5-2.887 5 2.887v5.773l-5 2.887-5-2.887Z"/>
        <path d="M145 54.848v-5.773l5-2.887 5 2.887v5.773l-5 2.887-5-2.887Z"/>
        <path d="M100 28.868v-5.774l5-2.887 5 2.887v5.774l-5 2.886-5-2.886Z"/>
        <path d="M70 28.868v-5.774l5-2.887 5 2.887v5.774l-5 2.886-5-2.886Z"/>
        <path d="M25 54.848v-5.773l5-2.887 5 2.887v5.773l-5 2.887-5-2.887Z"/>
        <path d="M10 80.829v-5.773l5-2.887 5 2.887v5.773l-5 2.887-5-2.887Z"/>
        <path d="M10 132.791v-5.774l5-2.887 5 2.887v5.774l-5 2.886-5-2.886Z"/>
        <path d="M120 46.188v-5.773l5-2.887 5 2.887v5.773l-5 2.887-5-2.887Z"/>
        <path d="M50 46.188v-5.773l5-2.887 5 2.887v5.773l-5 2.887-5-2.887Z"/>
        <path d="M15 106.81v-5.774l5-2.886 5 2.886v5.774l-5 2.887-5-2.887Z"/>
        <path d="m160 155.885 15-8.661 5 2.887v5.774l-5 2.886-5-2.886v-17.321"/>
        <path d="m30 178.981 10 5.773 10-5.773v-11.547l-10-5.774-10 5.774v11.547Z"/>
        <path d="m65 176.093 5 2.887 5-2.887v-5.774l-5-2.886-5 2.886v5.774Z"/>
        <path d="m50 184.753 5 2.887 5-2.887v-5.773l-5-2.887-5 2.887v5.773Z"/>
        <path d="m50 167.433 5 2.886 5-2.886v-5.774l-5-2.887-5 2.887v5.774Z"/>
        <path d="m25.001 158.772 5 2.887 5-2.887v-5.774l-5-2.886-5 2.886v5.774Z"/>
        <path d="M170 69.282v-17.32l5-2.887 5 2.887v5.773l-5 2.887-15-8.66"/>
        <path d="M100 17.321 85 8.66V2.887L90 0l5 2.887V8.66l-15 8.661"/>
        <path d="m20 51.962-15 8.66-5-2.887v-5.773l5-2.887 5 2.887v17.32"/>
        <path d="M10 138.564v17.321l-5 2.886-5-2.886v-5.774l5-2.887 15 8.661"/>
      </g>
    </g>
    <path d="m90 57.735 40 23.094v46.188l-40 23.094-40-23.094V80.829l40-23.094Zm0 21.046 21.773 12.571v25.142L90 129.065l-21.773-12.571V91.352L90 78.781Z" fill="#adfd2d" id="chonk"/>
  </g>
</svg>