<?xml version="1.0" encoding="UTF-8" standalone="no" ?>
<!DOCTYPE svg PUBLIC "-//W3C//DTD SVG 1.1//EN"
  "http://www.w3.org/Graphics/SVG/1.1/DTD/svg11.dtd">
<svg
  width="100%"
  height="100%"
  viewBox="0 0 480 240"
  version="1.1"
  xmlns="http://www.w3.org/2000/svg"
  xmlns:xlink="http://www.w3.org/1999/xlink"
  xml:space="preserve"
  xmlns:serif="http://www.serif.com/"
  style="fill-rule:evenodd;clip-rule:evenodd;stroke-linejoin:round;stroke-miterlimit:2;"
>
  <rect x="0" y="0" width="480" height="240" />
  <path
    d="M69.282,0l2.718,0l0,240l-2.718,0l-69.282,-120l69.282,-120Z"
    style="fill:#808080;"
  />
  <path
    d="M410.718,240l-2.718,0l0,-240l2.718,0l69.282,120l-69.282,120Z"
    style="fill:#808080;"
  />
  <rect x="69.282" y="0" width="341.436" height="240" style="fill:#808080;" />
  <g>
    <path
      d="M29.282,123.701l0,-26.881l46.559,-26.881l-11.64,20.161l11.64,6.72l0,26.881l-23.28,13.44l-23.279,-13.44Z"
      style="fill:#fff;fill-opacity:0.5;"
    />
    <path
      d="M62.723,143.008l0,-26.881l46.559,-26.881l-11.64,20.161l11.64,6.72l0,26.881l-23.279,13.44l-23.28,-13.44Z"
      style="fill:#fff;fill-opacity:0.5;"
    />
  </g>
  <g>
    <path
      d="M417.385,96.93l0,26.943l-46.667,26.943l11.667,-20.207l-11.667,-6.736l0,-26.943l23.333,-13.472l23.334,13.472Z"
      style="fill:#fff;fill-opacity:0.5;"
    />
    <path
      d="M450.718,116.175l0,26.943l-46.667,26.943l11.667,-20.207l-11.667,-6.736l0,-26.943l23.334,-13.472l23.333,13.472Z"
      style="fill:#fff;fill-opacity:0.5;"
    />
  </g>
</svg>
